<svg width="21" height="20" viewBox="0 0 21 20" fill="none" xmlns="http://www.w3.org/2000/svg">
<path d="M2.5 1.66056C2.03976 1.66056 1.66667 2.03366 1.66667 2.4939C1.66667 2.95413 2.03976 3.32723 2.5 3.32723V1.66056ZM4.41045 2.4939L5.2148 2.27605C5.11642 1.9128 4.78679 1.66056 4.41045 1.66056V2.4939ZM7.51493 13.9566L6.71057 14.1744C6.81913 14.5753 7.20623 14.835 7.61829 14.7835L7.51493 13.9566ZM17.0672 12.7626L17.1705 13.5895C17.5244 13.5452 17.811 13.2807 17.8832 12.9314L17.0672 12.7626ZM18.5 5.83718L19.3161 6.00602C19.3668 5.76059 19.3045 5.50534 19.1462 5.31099C18.9879 5.11665 18.7506 5.00385 18.5 5.00385V5.83718ZM5.31592 5.83718L4.51156 6.05503L5.31592 5.83718ZM2.5 3.32723H4.41045V1.66056H2.5V3.32723ZM7.61829 14.7835L17.1705 13.5895L16.9638 11.9357L7.41156 13.1297L7.61829 14.7835ZM17.8832 12.9314L19.3161 6.00602L17.684 5.66834L16.2511 12.5937L17.8832 12.9314ZM3.60609 2.71174L4.51156 6.05503L6.12028 5.61934L5.2148 2.27605L3.60609 2.71174ZM4.51156 6.05503L6.71057 14.1744L8.31928 13.7387L6.12028 5.61934L4.51156 6.05503ZM18.5 5.00385H5.31592V6.67052H18.5V5.00385ZM9.66667 17.0833C9.66667 17.3134 9.48012 17.5 9.25 17.5V19.1666C10.4006 19.1666 11.3333 18.2339 11.3333 17.0833H9.66667ZM9.25 17.5C9.01988 17.5 8.83333 17.3134 8.83333 17.0833H7.16667C7.16667 18.2339 8.09941 19.1666 9.25 19.1666V17.5ZM8.83333 17.0833C8.83333 16.8532 9.01988 16.6666 9.25 16.6666V15C8.09941 15 7.16667 15.9327 7.16667 17.0833H8.83333ZM9.25 16.6666C9.48012 16.6666 9.66667 16.8532 9.66667 17.0833H11.3333C11.3333 15.9327 10.4006 15 9.25 15V16.6666ZM16.3333 17.0833C16.3333 17.3134 16.1468 17.5 15.9167 17.5V19.1666C17.0673 19.1666 18 18.2339 18 17.0833H16.3333ZM15.9167 17.5C15.6866 17.5 15.5 17.3134 15.5 17.0833H13.8333C13.8333 18.2339 14.7661 19.1666 15.9167 19.1666V17.5ZM15.5 17.0833C15.5 16.8532 15.6866 16.6666 15.9167 16.6666V15C14.7661 15 13.8333 15.9327 13.8333 17.0833H15.5ZM15.9167 16.6666C16.1468 16.6666 16.3333 16.8532 16.3333 17.0833H18C18 15.9327 17.0673 15 15.9167 15V16.6666Z" fill="#3B944E"/>
</svg>
